<svg id="visual" viewBox="0 0 960 300" width="960" height="300" xmlns="http://www.w3.org/2000/svg" xmlns:xlink="http://www.w3.org/1999/xlink" version="1.1"><rect x="0" y="0" width="960" height="300" fill="#07121a"></rect><path d="M0 77L16 83.3C32 89.7 64 102.3 96 110.2C128 118 160 121 192 121.7C224 122.3 256 120.7 288 116.2C320 111.7 352 104.3 384 104.3C416 104.3 448 111.7 480 118C512 124.3 544 129.7 576 130.5C608 131.3 640 127.7 672 117.7C704 107.7 736 91.3 768 91.3C800 91.3 832 107.7 864 109.5C896 111.3 928 98.7 944 92.3L960 86L960 0L944 0C928 0 896 0 864 0C832 0 800 0 768 0C736 0 704 0 672 0C640 0 608 0 576 0C544 0 512 0 480 0C448 0 416 0 384 0C352 0 320 0 288 0C256 0 224 0 192 0C160 0 128 0 96 0C64 0 32 0 16 0L0 0Z" fill="#b60c00"></path><path d="M0 115L16 113.7C32 112.3 64 109.7 96 104.8C128 100 160 93 192 95.5C224 98 256 110 288 106.8C320 103.7 352 85.3 384 77.5C416 69.7 448 72.3 480 81.3C512 90.3 544 105.7 576 112.7C608 119.7 640 118.3 672 116.8C704 115.3 736 113.7 768 113.7C800 113.7 832 115.3 864 113.8C896 112.3 928 107.7 944 105.3L960 103L960 0L944 0C928 0 896 0 864 0C832 0 800 0 768 0C736 0 704 0 672 0C640 0 608 0 576 0C544 0 512 0 480 0C448 0 416 0 384 0C352 0 320 0 288 0C256 0 224 0 192 0C160 0 128 0 96 0C64 0 32 0 16 0L0 0Z" fill="#b91b10"></path><path d="M0 67L16 69.7C32 72.3 64 77.7 96 81C128 84.3 160 85.7 192 81.2C224 76.7 256 66.3 288 67.7C320 69 352 82 384 87.7C416 93.3 448 91.7 480 86.8C512 82 544 74 576 74C608 74 640 82 672 79.7C704 77.3 736 64.7 768 66.8C800 69 832 86 864 86.2C896 86.3 928 69.7 944 61.3L960 53L960 0L944 0C928 0 896 0 864 0C832 0 800 0 768 0C736 0 704 0 672 0C640 0 608 0 576 0C544 0 512 0 480 0C448 0 416 0 384 0C352 0 320 0 288 0C256 0 224 0 192 0C160 0 128 0 96 0C64 0 32 0 16 0L0 0Z" fill="#bc251e"></path><path d="M0 75L16 76.3C32 77.7 64 80.3 96 79C128 77.7 160 72.3 192 65.7C224 59 256 51 288 51.8C320 52.7 352 62.3 384 65.7C416 69 448 66 480 68.3C512 70.7 544 78.3 576 74.3C608 70.3 640 54.7 672 47.2C704 39.7 736 40.3 768 42.7C800 45 832 49 864 54C896 59 928 65 944 68L960 71L960 0L944 0C928 0 896 0 864 0C832 0 800 0 768 0C736 0 704 0 672 0C640 0 608 0 576 0C544 0 512 0 480 0C448 0 416 0 384 0C352 0 320 0 288 0C256 0 224 0 192 0C160 0 128 0 96 0C64 0 32 0 16 0L0 0Z" fill="#be2f29"></path><path d="M0 35L16 38.7C32 42.3 64 49.7 96 50C128 50.3 160 43.7 192 42C224 40.3 256 43.7 288 46C320 48.3 352 49.7 384 47.2C416 44.7 448 38.3 480 37.5C512 36.7 544 41.3 576 40.5C608 39.7 640 33.3 672 32.7C704 32 736 37 768 42C800 47 832 52 864 53.2C896 54.3 928 51.7 944 50.3L960 49L960 0L944 0C928 0 896 0 864 0C832 0 800 0 768 0C736 0 704 0 672 0C640 0 608 0 576 0C544 0 512 0 480 0C448 0 416 0 384 0C352 0 320 0 288 0C256 0 224 0 192 0C160 0 128 0 96 0C64 0 32 0 16 0L0 0Z" fill="#c03834"></path><path d="M0 21L16 20.5C32 20 64 19 96 22C128 25 160 32 192 32.7C224 33.3 256 27.7 288 29.3C320 31 352 40 384 41.7C416 43.3 448 37.7 480 36.2C512 34.7 544 37.3 576 35.7C608 34 640 28 672 25.7C704 23.3 736 24.7 768 27.3C800 30 832 34 864 35.8C896 37.7 928 37.3 944 37.2L960 37L960 0L944 0C928 0 896 0 864 0C832 0 800 0 768 0C736 0 704 0 672 0C640 0 608 0 576 0C544 0 512 0 480 0C448 0 416 0 384 0C352 0 320 0 288 0C256 0 224 0 192 0C160 0 128 0 96 0C64 0 32 0 16 0L0 0Z" fill="#c1403e"></path><path d="M0 17L16 19.3C32 21.7 64 26.3 96 27.7C128 29 160 27 192 24.2C224 21.3 256 17.7 288 14C320 10.3 352 6.7 384 7.5C416 8.3 448 13.7 480 15.2C512 16.7 544 14.3 576 15.3C608 16.3 640 20.7 672 19.3C704 18 736 11 768 9C800 7 832 10 864 10.2C896 10.3 928 7.7 944 6.3L960 5L960 0L944 0C928 0 896 0 864 0C832 0 800 0 768 0C736 0 704 0 672 0C640 0 608 0 576 0C544 0 512 0 480 0C448 0 416 0 384 0C352 0 320 0 288 0C256 0 224 0 192 0C160 0 128 0 96 0C64 0 32 0 16 0L0 0Z" fill="#c24848"></path></svg>