<svg id="visual" viewBox="0 0 900 450" width="900" height="450" xmlns="http://www.w3.org/2000/svg" xmlns:xlink="http://www.w3.org/1999/xlink" version="1.1"><rect x="0" y="0" width="900" height="450" fill="#333333"></rect><path d="M0 266L129 266L129 232L257 232L257 255L386 255L386 265L514 265L514 222L643 222L643 287L771 287L771 259L900 259L900 247L900 451L900 451L771 451L771 451L643 451L643 451L514 451L514 451L386 451L386 451L257 451L257 451L129 451L129 451L0 451Z" fill="#680000"></path><path d="M0 331L129 331L129 303L257 303L257 289L386 289L386 300L514 300L514 322L643 322L643 332L771 332L771 349L900 349L900 293L900 451L900 451L771 451L771 451L643 451L643 451L514 451L514 451L386 451L386 451L257 451L257 451L129 451L129 451L0 451Z" fill="#a50006"></path><path d="M0 365L129 365L129 393L257 393L257 358L386 358L386 381L514 381L514 344L643 344L643 352L771 352L771 381L900 381L900 387L900 451L900 451L771 451L771 451L643 451L643 451L514 451L514 451L386 451L386 451L257 451L257 451L129 451L129 451L0 451Z" fill="#e60000"></path></svg>