<svg id="visual" viewBox="0 0 900 450" width="900" height="450" xmlns="http://www.w3.org/2000/svg" xmlns:xlink="http://www.w3.org/1999/xlink" version="1.1"><rect x="0" y="0" width="900" height="450" fill="#333333"></rect><path d="M0 91L15 96.7C30 102.3 60 113.7 90 110.3C120 107 150 89 180 76.7C210 64.3 240 57.7 270 58.8C300 60 330 69 360 75C390 81 420 84 450 97C480 110 510 133 540 129.8C570 126.7 600 97.3 630 83.2C660 69 690 70 720 74.7C750 79.3 780 87.7 810 89.5C840 91.3 870 86.7 885 84.3L900 82L900 0L885 0C870 0 840 0 810 0C780 0 750 0 720 0C690 0 660 0 630 0C600 0 570 0 540 0C510 0 480 0 450 0C420 0 390 0 360 0C330 0 300 0 270 0C240 0 210 0 180 0C150 0 120 0 90 0C60 0 30 0 15 0L0 0Z" fill="#b20020" stroke-linecap="round" stroke-linejoin="miter"></path></svg>