<svg id="visual" viewBox="0 0 900 450" width="900" height="450" xmlns="http://www.w3.org/2000/svg" xmlns:xlink="http://www.w3.org/1999/xlink" version="1.1"><rect x="0" y="0" width="900" height="450" fill="#333333"></rect><path d="M0 131L16.7 116.3C33.3 101.7 66.7 72.3 100 58.5C133.3 44.7 166.7 46.3 200 55.3C233.3 64.3 266.7 80.7 300 79C333.3 77.3 366.7 57.7 400 53.2C433.3 48.7 466.7 59.3 500 65.7C533.3 72 566.7 74 600 71.7C633.3 69.3 666.7 62.7 700 61C733.3 59.3 766.7 62.7 800 63.2C833.3 63.7 866.7 61.3 883.3 60.2L900 59L900 0L883.3 0C866.7 0 833.3 0 800 0C766.7 0 733.3 0 700 0C666.7 0 633.3 0 600 0C566.7 0 533.3 0 500 0C466.7 0 433.3 0 400 0C366.7 0 333.3 0 300 0C266.7 0 233.3 0 200 0C166.7 0 133.3 0 100 0C66.7 0 33.3 0 16.7 0L0 0Z" fill="#b20020" stroke-linecap="round" stroke-linejoin="miter"></path></svg>