<svg id="visual" viewBox="0 0 1800 1400" width="1800" height="1400" xmlns="http://www.w3.org/2000/svg" xmlns:xlink="http://www.w3.org/1999/xlink" version="1.1"><rect x="0" y="0" width="1800" height="1400" fill="#1d1d1d"></rect><path d="M0 594L30 577C60 560 120 526 180 485.8C240 445.7 300 399.3 360 381.8C420 364.3 480 375.7 540 421C600 466.3 660 545.7 720 572.3C780 599 840 573 900 552C960 531 1020 515 1080 530.2C1140 545.3 1200 591.7 1260 612.5C1320 633.3 1380 628.7 1440 616.7C1500 604.7 1560 585.3 1620 547.2C1680 509 1740 452 1770 423.5L1800 395L1800 0L1770 0C1740 0 1680 0 1620 0C1560 0 1500 0 1440 0C1380 0 1320 0 1260 0C1200 0 1140 0 1080 0C1020 0 960 0 900 0C840 0 780 0 720 0C660 0 600 0 540 0C480 0 420 0 360 0C300 0 240 0 180 0C120 0 60 0 30 0L0 0Z" fill="#b60c00"></path><path d="M0 330L30 367.8C60 405.7 120 481.3 180 485.3C240 489.3 300 421.7 360 420.7C420 419.7 480 485.3 540 492.2C600 499 660 447 720 431.8C780 416.7 840 438.3 900 465C960 491.7 1020 523.3 1080 524.7C1140 526 1200 497 1260 493.7C1320 490.3 1380 512.7 1440 504.7C1500 496.7 1560 458.3 1620 428.2C1680 398 1740 376 1770 365L1800 354L1800 0L1770 0C1740 0 1680 0 1620 0C1560 0 1500 0 1440 0C1380 0 1320 0 1260 0C1200 0 1140 0 1080 0C1020 0 960 0 900 0C840 0 780 0 720 0C660 0 600 0 540 0C480 0 420 0 360 0C300 0 240 0 180 0C120 0 60 0 30 0L0 0Z" fill="#b91b10"></path><path d="M0 427L30 397.5C60 368 120 309 180 294.7C240 280.3 300 310.7 360 346C420 381.3 480 421.7 540 438.5C600 455.3 660 448.7 720 433.7C780 418.7 840 395.3 900 365C960 334.7 1020 297.3 1080 293.8C1140 290.3 1200 320.7 1260 337.2C1320 353.7 1380 356.3 1440 338.2C1500 320 1560 281 1620 284.3C1680 287.7 1740 333.3 1770 356.2L1800 379L1800 0L1770 0C1740 0 1680 0 1620 0C1560 0 1500 0 1440 0C1380 0 1320 0 1260 0C1200 0 1140 0 1080 0C1020 0 960 0 900 0C840 0 780 0 720 0C660 0 600 0 540 0C480 0 420 0 360 0C300 0 240 0 180 0C120 0 60 0 30 0L0 0Z" fill="#bc251e"></path><path d="M0 196L30 228.8C60 261.7 120 327.3 180 342.2C240 357 300 321 360 314C420 307 480 329 540 338.5C600 348 660 345 720 329.7C780 314.3 840 286.7 900 291.5C960 296.3 1020 333.7 1080 340.5C1140 347.3 1200 323.7 1260 295.8C1320 268 1380 236 1440 236.5C1500 237 1560 270 1620 299.2C1680 328.3 1740 353.7 1770 366.3L1800 379L1800 0L1770 0C1740 0 1680 0 1620 0C1560 0 1500 0 1440 0C1380 0 1320 0 1260 0C1200 0 1140 0 1080 0C1020 0 960 0 900 0C840 0 780 0 720 0C660 0 600 0 540 0C480 0 420 0 360 0C300 0 240 0 180 0C120 0 60 0 30 0L0 0Z" fill="#be2f29"></path><path d="M0 269L30 276.5C60 284 120 299 180 280.2C240 261.3 300 208.7 360 200.3C420 192 480 228 540 231.5C600 235 660 206 720 200.5C780 195 840 213 900 224C960 235 1020 239 1080 253C1140 267 1200 291 1260 289.7C1320 288.3 1380 261.7 1440 261.5C1500 261.3 1560 287.7 1620 291.8C1680 296 1740 278 1770 269L1800 260L1800 0L1770 0C1740 0 1680 0 1620 0C1560 0 1500 0 1440 0C1380 0 1320 0 1260 0C1200 0 1140 0 1080 0C1020 0 960 0 900 0C840 0 780 0 720 0C660 0 600 0 540 0C480 0 420 0 360 0C300 0 240 0 180 0C120 0 60 0 30 0L0 0Z" fill="#c03834"></path><path d="M0 76L30 82C60 88 120 100 180 103.2C240 106.3 300 100.7 360 113.5C420 126.3 480 157.7 540 173C600 188.3 660 187.7 720 173.3C780 159 840 131 900 112.3C960 93.7 1020 84.3 1080 87.7C1140 91 1200 107 1260 123.8C1320 140.7 1380 158.3 1440 177C1500 195.7 1560 215.3 1620 222.5C1680 229.7 1740 224.3 1770 221.7L1800 219L1800 0L1770 0C1740 0 1680 0 1620 0C1560 0 1500 0 1440 0C1380 0 1320 0 1260 0C1200 0 1140 0 1080 0C1020 0 960 0 900 0C840 0 780 0 720 0C660 0 600 0 540 0C480 0 420 0 360 0C300 0 240 0 180 0C120 0 60 0 30 0L0 0Z" fill="#c1403e"></path><path d="M0 113L30 99.7C60 86.3 120 59.7 180 63.8C240 68 300 103 360 121.2C420 139.3 480 140.7 540 129.5C600 118.3 660 94.7 720 92.7C780 90.7 840 110.3 900 104.5C960 98.7 1020 67.3 1080 52.5C1140 37.7 1200 39.3 1260 39.8C1320 40.3 1380 39.7 1440 43.7C1500 47.7 1560 56.3 1620 61.8C1680 67.3 1740 69.7 1770 70.8L1800 72L1800 0L1770 0C1740 0 1680 0 1620 0C1560 0 1500 0 1440 0C1380 0 1320 0 1260 0C1200 0 1140 0 1080 0C1020 0 960 0 900 0C840 0 780 0 720 0C660 0 600 0 540 0C480 0 420 0 360 0C300 0 240 0 180 0C120 0 60 0 30 0L0 0Z" fill="#c24848"></path></svg>