<svg id="visual" viewBox="0 0 900 600" width="900" height="600" xmlns="http://www.w3.org/2000/svg" xmlns:xlink="http://www.w3.org/1999/xlink" version="1.1"><rect x="0" y="0" width="900" height="600" fill="#140021"></rect><path d="M0 265L129 265L129 264L257 264L257 338L386 338L386 316L514 316L514 276L643 276L643 250L771 250L771 349L900 349L900 310L900 601L900 601L771 601L771 601L643 601L643 601L514 601L514 601L386 601L386 601L257 601L257 601L129 601L129 601L0 601Z" fill="#9900ff"></path><path d="M0 395L129 395L129 366L257 366L257 381L386 381L386 402L514 402L514 440L643 440L643 365L771 365L771 409L900 409L900 461L900 601L900 601L771 601L771 601L643 601L643 601L514 601L514 601L386 601L386 601L257 601L257 601L129 601L129 601L0 601Z" fill="#7700c6"></path><path d="M0 484L129 484L129 491L257 491L257 521L386 521L386 451L514 451L514 510L643 510L643 445L771 445L771 468L900 468L900 521L900 601L900 601L771 601L771 601L643 601L643 601L514 601L514 601L386 601L386 601L257 601L257 601L129 601L129 601L0 601Z" fill="#560090"></path></svg>